<?xml version="1.0" encoding="UTF-8" standalone="no"?>
<!-- Created with Inkscape (http://www.inkscape.org/) -->

<svg
   xmlns:dc="http://purl.org/dc/elements/1.1/"
   xmlns:cc="http://creativecommons.org/ns#"
   xmlns:rdf="http://www.w3.org/1999/02/22-rdf-syntax-ns#"
   xmlns:svg="http://www.w3.org/2000/svg"
   xmlns="http://www.w3.org/2000/svg"
   xmlns:sodipodi="http://sodipodi.sourceforge.net/DTD/sodipodi-0.dtd"
   xmlns:inkscape="http://www.inkscape.org/namespaces/inkscape"
   version="1.1"
   id="svg29"
   xml:space="preserve"
   width="1402.12"
   height="284"
   viewBox="0 0 1402.12 284"
   sodipodi:docname="logo.svg"
   inkscape:version="0.92.2 2405546, 2018-03-11"><metadata
     id="metadata35"><rdf:RDF><cc:Work
         rdf:about=""><dc:format>image/svg+xml</dc:format><dc:type
           rdf:resource="http://purl.org/dc/dcmitype/StillImage" /><dc:title></dc:title></cc:Work></rdf:RDF></metadata><defs
     id="defs33"><clipPath
       clipPathUnits="userSpaceOnUse"
       id="clipPath45"><path
         d="M 0,213 H 1051.585 V 0 H 0 Z"
         id="path43"
         inkscape:connector-curvature="0" /></clipPath><clipPath
       clipPathUnits="userSpaceOnUse"
       id="clipPath87"><path
         d="M 0,213 H 1051.585 V 0 H 0 Z"
         id="path85"
         inkscape:connector-curvature="0" /></clipPath></defs><sodipodi:namedview
     pagecolor="#ffffff"
     bordercolor="#666666"
     borderopacity="1"
     objecttolerance="10"
     gridtolerance="10"
     guidetolerance="10"
     inkscape:pageopacity="0"
     inkscape:pageshadow="2"
     inkscape:window-width="1770"
     inkscape:window-height="930"
     id="namedview31"
     showgrid="false"
     inkscape:zoom="1.126865"
     inkscape:cx="458.88154"
     inkscape:cy="284.83564"
     inkscape:window-x="75"
     inkscape:window-y="75"
     inkscape:window-maximized="0"
     inkscape:current-layer="g93" /><g
     id="g37"
     inkscape:groupmode="layer"
     inkscape:label="PlutocraftWordmark"
     transform="matrix(1.3333333,0,0,-1.3333333,0,284)"><g
       id="g39"><g
         id="g41"
         clip-path="url(#clipPath45)"><g
           id="g47"
           transform="translate(75,92.9722)"><path
             d="m 0,0 c 0,4.131 -0.6,7.731 -1.8,10.8 -1.2,3.066 -2.868,5.632 -5,7.7 -2.134,2.066 -4.569,3.6 -7.3,4.6 -2.734,1 -5.568,1.5 -8.5,1.5 -2.934,0 -5.769,-0.5 -8.5,-1.5 -2.734,-1 -5.134,-2.534 -7.2,-4.6 -2.069,-2.068 -3.7,-4.634 -4.9,-7.7 C -44.4,7.731 -45,4.131 -45,0 c 0,-4.134 0.6,-7.734 1.8,-10.8 1.2,-3.069 2.831,-5.634 4.9,-7.7 2.066,-2.068 4.466,-3.634 7.2,-4.7 2.731,-1.069 5.566,-1.6 8.5,-1.6 2.932,0 5.766,0.5 8.5,1.5 2.731,1 5.166,2.531 7.3,4.6 2.132,2.066 3.8,4.666 5,7.8 C -0.6,-7.769 0,-4.134 0,0 M -75,-87.8 V 49.6 h 29.4 V 39.4 c 2.131,3.2 5.731,6.1 10.8,8.7 5.066,2.6 11.2,3.9 18.4,3.9 7.2,0 13.666,-1.3 19.4,-3.9 5.731,-2.6 10.566,-6.2 14.5,-10.8 3.931,-4.6 6.966,-10.069 9.1,-16.4 2.131,-6.334 3.2,-13.234 3.2,-20.7 0,-7.6 -1.169,-14.6 -3.5,-21 -2.334,-6.4 -5.6,-11.9 -9.8,-16.5 -4.2,-4.6 -9.2,-8.2 -15,-10.8 -5.8,-2.6 -12.168,-3.9 -19.1,-3.9 -6.4,0 -11.934,0.969 -16.6,2.9 -4.669,1.932 -8.134,4.3 -10.4,7.1 v -45.8 z"
             style="fill:#000000;fill-opacity:1;fill-rule:nonzero;stroke:none"
             id="path49"
             inkscape:connector-curvature="0" /></g><path
           d="m 124.399,187.972 h 30.4 v -144.8 h -30.4 z"
           style="fill:#000000;fill-opacity:1;fill-rule:nonzero;stroke:none"
           id="path51"
           inkscape:connector-curvature="0" /><g
           id="g53"
           transform="translate(245.5996,43.1724)"><path
             d="M 0,0 C -0.269,0.931 -0.469,2.5 -0.6,4.7 -0.734,6.9 -0.8,8.666 -0.8,10 -3.469,5.731 -7.3,2.631 -12.3,0.7 c -5,-1.931 -10.034,-2.9 -15.1,-2.9 -6,0 -11.369,1.034 -16.1,3.1 -4.734,2.066 -8.7,4.866 -11.9,8.4 -3.2,3.531 -5.635,7.631 -7.3,12.3 -1.669,4.666 -2.5,9.666 -2.5,15 v 62.8 h 30.4 V 43 c 0,-4.8 1.3,-8.869 3.9,-12.2 2.6,-3.334 6.631,-5 12.1,-5 5.066,0 9.1,1.566 12.1,4.7 3,3.131 4.5,7.231 4.5,12.3 V 99.4 H 28.2 V 17.8 c 0,-4.534 0.131,-8.434 0.4,-11.7 0.266,-3.269 0.465,-5.3 0.6,-6.1 z"
             style="fill:#000000;fill-opacity:1;fill-rule:nonzero;stroke:none"
             id="path55"
             inkscape:connector-curvature="0" /></g><g
           id="g57"
           transform="translate(336.998,142.5723)"><path
             d="M 0,0 H 19.4 V -26.6 H 0 v -37.2 c 0,-4.134 1,-6.9 3,-8.3 2,-1.4 4.666,-2.1 8,-2.1 1.6,0 3.1,0.1 4.5,0.3 1.4,0.2 2.566,0.431 3.5,0.7 v -25.2 c -0.668,-0.268 -2.269,-0.8 -4.8,-1.6 -2.534,-0.8 -6.2,-1.2 -11,-1.2 -10.4,0 -18.534,2.831 -24.4,8.5 -5.868,5.666 -8.8,13.5 -8.8,23.5 v 42.6 H -47.6 V 0 h 5 c 5.2,0 9.066,1.531 11.6,4.6 2.531,3.066 3.8,6.931 3.8,11.6 V 29 H 0 Z"
             style="fill:#000000;fill-opacity:1;fill-rule:nonzero;stroke:none"
             id="path59"
             inkscape:connector-curvature="0" /></g><g
           id="g61"
           transform="translate(658.7944,117.5723)"><path
             d="m 0,0 c -3.2,0 -6.169,-0.534 -8.9,-1.6 -2.735,-1.068 -5.135,-2.669 -7.2,-4.8 -2.069,-2.134 -3.7,-4.734 -4.9,-7.8 -1.2,-3.069 -1.8,-6.6 -1.8,-10.6 0,-4 0.631,-7.5 1.9,-10.5 1.265,-3 2.931,-5.569 5,-7.7 2.066,-2.134 4.5,-3.734 7.3,-4.8 2.8,-1.069 5.8,-1.6 9,-1.6 5.866,0 10.5,1.531 13.9,4.6 3.4,3.066 5.631,6.466 6.7,10.2 l 26.8,-8.2 c -1.069,-4.4 -2.9,-8.669 -5.5,-12.8 -2.6,-4.134 -5.9,-7.8 -9.9,-11 -4,-3.2 -8.669,-5.8 -14,-7.8 -5.335,-2 -11.335,-3 -18,-3 -7.469,0 -14.435,1.3 -20.9,3.9 -6.469,2.6 -12.1,6.231 -16.9,10.9 -4.8,4.666 -8.6,10.2 -11.4,16.6 -2.8,6.4 -4.2,13.466 -4.2,21.2 0,7.731 1.365,14.831 4.1,21.3 2.731,6.466 6.465,12.031 11.2,16.7 4.731,4.666 10.265,8.3 16.6,10.9 6.331,2.6 13.165,3.9 20.5,3.9 6.8,0 12.931,-0.969 18.4,-2.9 5.466,-1.934 10.2,-4.5 14.2,-7.7 4,-3.2 7.266,-6.9 9.8,-11.1 2.531,-4.2 4.331,-8.5 5.4,-12.9 L 20,-14.8 c -0.535,1.866 -1.334,3.7 -2.4,5.5 -1.069,1.8 -2.4,3.4 -4,4.8 C 12,-3.1 10.065,-2 7.8,-1.2 5.531,-0.4 2.931,0 0,0"
             style="fill:#000000;fill-opacity:1;fill-rule:nonzero;stroke:none"
             id="path63"
             inkscape:connector-curvature="0" /></g><g
           id="g65"
           transform="translate(788.3926,112.5723)"><path
             d="M 0,0 C -1.734,0.4 -3.4,0.666 -5,0.8 -6.6,0.931 -8.134,1 -9.6,1 c -3.069,0 -6,-0.469 -8.8,-1.4 -2.8,-0.934 -5.269,-2.469 -7.4,-4.6 -2.135,-2.134 -3.834,-4.934 -5.1,-8.4 -1.269,-3.469 -1.9,-7.669 -1.9,-12.6 V -69.4 H -63.2 V 30 h 29.4 V 16.6 c 1.331,2.8 3.031,5.131 5.1,7 2.066,1.866 4.3,3.331 6.7,4.4 2.4,1.066 4.831,1.832 7.3,2.3 2.466,0.466 4.7,0.7 6.7,0.7 3.065,0 5.731,-0.334 8,-1 z"
             style="fill:#000000;fill-opacity:1;fill-rule:nonzero;stroke:none"
             id="path67"
             inkscape:connector-curvature="0" /></g><g
           id="g69"
           transform="translate(843.3901,62.3726)"><path
             d="m 0,0 c 2.266,0 4.5,0.3 6.7,0.9 2.2,0.6 4.131,1.665 5.8,3.2 1.666,1.531 3.031,3.566 4.1,6.1 1.066,2.531 1.6,5.731 1.6,9.6 v 4.4 l -18.8,-3 c -3.2,-0.534 -5.869,-1.635 -8,-3.3 -2.134,-1.669 -3.2,-4.234 -3.2,-7.7 0,-2.669 0.9,-5.034 2.7,-7.1 C -7.3,1.031 -4.269,0 0,0 m -41.8,8.2 c 0,4.4 0.765,8.331 2.3,11.8 1.531,3.465 3.631,6.431 6.3,8.9 2.665,2.465 5.765,4.465 9.3,6 3.531,1.531 7.365,2.631 11.5,3.3 L 11,41.8 c 2.666,0.4 4.531,1.2 5.6,2.4 1.066,1.2 1.6,2.665 1.6,4.4 0,2.931 -1.235,5.465 -3.7,7.6 -2.469,2.131 -6.1,3.2 -10.9,3.2 -5.334,0 -9.434,-1.5 -12.3,-4.5 -2.869,-3 -4.435,-6.369 -4.7,-10.1 l -26.4,5.4 c 0.265,3.6 1.331,7.331 3.2,11.2 1.866,3.866 4.565,7.4 8.1,10.6 3.531,3.2 7.965,5.865 13.3,8 5.331,2.131 11.665,3.2 19,3.2 8,0 14.8,-1.034 20.4,-3.1 5.6,-2.069 10.165,-4.869 13.7,-8.4 3.531,-3.534 6.065,-7.635 7.6,-12.3 1.531,-4.669 2.3,-9.535 2.3,-14.6 V -3.8 c 0,-3.869 0.165,-7.269 0.5,-10.2 0.331,-2.935 0.565,-4.669 0.7,-5.2 H 21.6 c -0.135,0.4 -0.334,1.5 -0.6,3.3 -0.269,1.8 -0.4,4.431 -0.4,7.9 -2.669,-4.269 -6.334,-7.669 -11,-10.2 -4.669,-2.531 -10.334,-3.8 -17,-3.8 -5.469,0 -10.334,0.834 -14.6,2.5 -4.269,1.666 -7.869,3.9 -10.8,6.7 -2.934,2.8 -5.169,6 -6.7,9.6 -1.535,3.6 -2.3,7.4 -2.3,11.4"
             style="fill:#000000;fill-opacity:1;fill-rule:nonzero;stroke:none"
             id="path71"
             inkscape:connector-curvature="0" /></g><g
           id="g73"
           transform="translate(951.7886,116.9722)"><path
             d="M 0,0 V -73.8 H -30.4 V 0 h -15.8 v 25.6 h 15.8 v 8.6 c 0,5.732 0.831,10.931 2.5,15.6 1.666,4.666 4.13,8.7 7.4,12.1 3.266,3.4 7.266,6.032 12,7.9 4.73,1.866 10.1,2.8 16.1,2.8 3.065,0 5.865,-0.2 8.4,-0.6 2.531,-0.4 4.531,-0.934 6,-1.6 V 45.6 c -0.801,0.266 -1.9,0.5 -3.301,0.7 -1.399,0.2 -3.3,0.3 -5.699,0.3 -1.335,0 -2.77,-0.168 -4.301,-0.5 C 7.165,45.766 5.766,45.1 4.5,44.1 3.23,43.1 2.165,41.731 1.3,40 0.431,38.266 0,36 0,33.2 V 25.6 H 21.6 V 0 Z"
             style="fill:#000000;fill-opacity:1;fill-rule:nonzero;stroke:none"
             id="path75"
             inkscape:connector-curvature="0" /></g><g
           id="g77"
           transform="translate(1032.1851,142.5723)"><path
             d="M 0,0 H 19.4 V -26.6 H 0 v -37.2 c 0,-4.134 1,-6.9 3,-8.3 2,-1.4 4.666,-2.1 8,-2.1 1.601,0 3.101,0.1 4.5,0.3 1.4,0.2 2.565,0.431 3.5,0.7 v -25.2 c -0.669,-0.268 -2.269,-0.8 -4.8,-1.6 -2.534,-0.8 -6.2,-1.2 -11,-1.2 -10.4,0 -18.534,2.831 -24.4,8.5 -5.868,5.666 -8.8,13.5 -8.8,23.5 v 42.6 H -47.6 V 0 h 5 c 5.201,0 9.066,1.531 11.6,4.6 2.531,3.066 3.8,6.931 3.8,11.6 V 29 H 0 Z"
             style="fill:#000000;fill-opacity:1;fill-rule:nonzero;stroke:none"
             id="path79"
             inkscape:connector-curvature="0" /></g></g></g><g
       id="g81"><g
         id="g83"
         clip-path="url(#clipPath87)"><g
           id="g89"
           transform="translate(481.7554,213)"><path
             d="m 0,0 c -58.818,0 -106.5,-47.682 -106.5,-106.5 0,-58.818 47.682,-106.5 106.5,-106.5 58.818,0 106.5,47.682 106.5,106.5 C 106.5,-47.682 58.818,0 0,0"
             style="fill:#000000;fill-opacity:1;fill-rule:nonzero;stroke:none"
             id="path91"
             inkscape:connector-curvature="0" /></g></g></g><g
       id="g93"
       transform="translate(533.0356,65.3901)"><path
         d="M 0,0 -29.14,-21.39 -51.77,8.99 -74.09,-21.39 -103.23,0 l 21.7,30.07 -35.65,11.78 11.47,34.1 35.34,-11.471 v 38.131 h 37.2 V 64.479 L 2.17,75.95 13.95,41.85 -21.7,30.07 Z"
         style="fill:#ffffff;fill-opacity:1;fill-rule:nonzero;stroke:none"
         id="path95"
         inkscape:connector-curvature="0" /></g></g></svg>