<?xml version="1.0" encoding="utf-8"?>
<!-- Generator: Adobe Illustrator 21.0.2, SVG Export Plug-In . SVG Version: 6.00 Build 0)  -->
<svg version="1.1" id="Layer_1" xmlns="http://www.w3.org/2000/svg" xmlns:xlink="http://www.w3.org/1999/xlink" x="0px" y="0px"
	 viewBox="0 0 5000 5000" style="enable-background:new 0 0 5000 5000;" xml:space="preserve">
<style type="text/css">
	.st0{fill:#6706FF;stroke:#FFFFFF;stroke-width:10;stroke-miterlimit:10;}
	.st1{fill:#9A0BFF;stroke:#F9F9F9;stroke-width:10;stroke-miterlimit:10;}
	.st2{fill:#FFFFFF;stroke:#FFFFFF;stroke-width:10;stroke-miterlimit:10;}
	.st3{fill:#3B00CC;stroke:#FFFFFF;stroke-width:10;stroke-miterlimit:10;}
	.st4{fill:#AA8FFF;stroke:#FFFFFF;stroke-width:10;stroke-miterlimit:10;}
	.st5{fill:#1800FF;stroke:#FFFFFF;stroke-width:10;stroke-miterlimit:10;}
	.st6{fill:#7933FF;stroke:#FFFFFF;stroke-width:10;stroke-miterlimit:10;}
	.st7{fill:#6706FF;stroke:#F9F9F9;stroke-width:10;stroke-miterlimit:10;}
	.st8{fill:#6706FF;stroke:#F9F9F9;stroke-width:150;stroke-miterlimit:10;}
</style>
<path class="st0" d="M-780,2396l2812,960l-61,448l-2139,92c0,0-1036-1167.8-1048-1183.9S-780,2396-780,2396z"/>
<polygon class="st1" points="895.9,2992 -113.2,1982.9 415.5,1454.2 895.9,973.8 1905,1982.9 "/>
<polygon class="st2" points="514.5,618.5 -197.5,2571.5 2143.5,2876.5 1896.5,529.5 "/>
<polygon class="st1" points="1052.5,2332.5 43.4,1323.4 572.1,794.7 1052.5,314.3 2061.6,1323.4 "/>
<polygon class="st1" points="1592.9,2288.5 583.8,1279.4 1112.5,750.7 1592.9,270.3 2602,1279.4 "/>
<polygon class="st1" points="973,2767.5 -36.1,1758.4 492.6,1229.7 973,749.3 1982.1,1758.4 "/>
<polygon class="st1" points="1251.9,2831.5 242.8,1822.4 771.5,1293.7 1251.9,813.3 2261,1822.4 "/>
<polygon class="st1" points="1843.4,2712.1 834.3,1703 1363,1174.3 1843.4,693.9 2852.5,1703 "/>
<polyline class="st3" points="3017,1703 2765,2980 5363,2809 4261.6,1644 2988,1703 "/>
<path class="st4" d="M2912-94c-29,6-941,836-941,836l3882,411L4965-94H2912z"/>
<polygon class="st2" points="3549,2563 2714,3233 4708,3963 5414,3063 "/>
<polyline class="st5" points="1065,-226 259,844 4432,1075.7 2723,-403 1094,-226 "/>
<polygon class="st2" points="4851.5,1089.5 3199.5,3877.5 5793.5,4036.5 "/>
<polygon class="st6" points="4488,889 3732,3410 6994,2933 "/>
<polyline class="st0" points="4853,-226 4854.6,-197 4953,1644 2817,209 4882,-197 "/>
<polyline class="st6" points="2373,-226 -513,2249 6723,1785 2373,-198 "/>
<polygon class="st6" points="2270,1533 59,2928 3473,3933 4229,2733 "/>
<polygon class="st6" points="1329.5,-37.5 435.5,1909.5 -811.5,1850.5 -106.5,-131.5 "/>
<polygon class="st0" points="2932,-702.1 2103,61.9 3732,1761.9 2450,2002.9 3497,-544.1 "/>
<polygon class="st0" points="829.5,3597.5 2852.5,4297.5 782.5,4644.5 1993.5,2562.5 "/>
<path class="st0" d="M852.5,2415.5c0,0,2318,1224,2306,1188s-123-1341-123-1341l-2718,935L852.5,2415.5z"/>
<path class="st2" d="M-2247.5,715.5"/>
<polygon class="st6" points="-349,1597 4309.3,2742 -443,2980 "/>
<polygon class="st6" points="3129,-485 6017,1245 5870,51 "/>
<polygon class="st7" points="1952.9,1412 749.9,2512 2520.9,2801 "/>
<path class="st8" d="M-1024,1644"/>
</svg>
